<svg xmlns="http://www.w3.org/2000/svg" viewBox="0 0 1200 400" role="img" aria-labelledby="title desc">
  <title id="title">Swaplume fluid wordmark</title>
  <desc id="desc">A fluid s mark paired with the Swaplume.fun wordmark.</desc>
  <defs>
    <linearGradient id="lockupS" x1="30" y1="90" x2="250" y2="300" gradientUnits="userSpaceOnUse">
      <stop offset="0" stop-color="#F2F4F8"/>
      <stop offset=".58" stop-color="#B7F34B"/>
      <stop offset="1" stop-color="#55E6D6"/>
    </linearGradient>
  </defs>
  <path d="M252 89 C225 69 187 62 147 66 C106 70 80 91 83 120 C86 146 111 158 150 164 L188 170 C224 176 242 193 237 214 C231 240 197 254 158 252 C117 250 89 236 72 212" fill="none" stroke="url(#lockupS)" stroke-width="33" stroke-linecap="round" stroke-linejoin="round"/>
  <circle cx="263" cy="54" r="9" fill="#FF6B4A"/>
  <path d="M78 269 C130 285 207 284 250 263" fill="none" stroke="#55E6D6" stroke-width="6" stroke-linecap="round"/>
  <text x="330" y="224" fill="#F2F4F8" font-family="DM Sans,Arial,sans-serif" font-size="76" font-weight="600" letter-spacing="1">swaplume</text>
  <text x="1005" y="224" fill="#FF6B4A" font-family="DM Sans,Arial,sans-serif" font-size="47" font-weight="700" letter-spacing="1">.fun</text>
  <text x="335" y="278" fill="#9AA5B3" font-family="DM Sans,Arial,sans-serif" font-size="16" font-weight="600" letter-spacing="4">COLLECT WITH PROOF.</text>
</svg>
